RBDS001runT25_grf
version=1
nRows=12
nColumns=19
inDegrees=no
endheader
time	ground_force_r_vx	ground_force_r_vy	ground_force_r_vz	ground_force_r_px	ground_force_r_py	ground_force_r_pz	ground_force_r_mx	ground_force_r_my	ground_force_r_mz	ground_force_l_vx	ground_force_l_vy	ground_force_l_vz	ground_force_l_px	ground_force_l_py	ground_force_l_pz	ground_force_l_mx	ground_force_l_my	ground_force_l_mz
      7.49900000	      0.00000000	      0.00000000	      0.00000000	      0.00000000	      0.00000000	      0.00000000	      0.00000000	      0.00000000	      0.00000000	    116.61903028	    417.10549715	    -19.81117560	      2.05874428	      0.00000000	      1.02657732	      0.00000000	      3.42642682	      0.00000000
      7.50000000	      0.00000000	      0.00000000	      0.00000000	      0.00000000	      0.00000000	      0.00000000	      0.00000000	      0.00000000	      0.00000000	    114.67965277	    404.61272859	    -19.58412082	      2.05686533	      0.00000000	      1.02637003	      0.00000000	      3.31727292	      0.00000000
      7.50100000	      0.00000000	      0.00000000	      0.00000000	      0.00000000	      0.00000000	      0.00000000	      0.00000000	      0.00000000	      0.00000000	    112.63011001	    392.60719783	    -19.28741084	      2.05508218	      0.00000000	      1.02613055	      0.00000000	      3.20435864	      0.00000000
      7.50200000	      0.00000000	      0.00000000	      0.00000000	      0.00000000	      0.00000000	      0.00000000	      0.00000000	      0.00000000	      0.00000000	    110.58056725	    380.60166708	    -18.99070086	      2.05329904	      0.00000000	      1.02589108	      0.00000000	      3.09144436	      0.00000000
      7.50300000	      0.00000000	      0.00000000	      0.00000000	      0.00000000	      0.00000000	      0.00000000	      0.00000000	      0.00000000	      0.00000000	    108.53102449	    368.59613632	    -18.69399087	      2.05151589	      0.00000000	      1.02565161	      0.00000000	      2.97853008	      0.00000000
      7.50400000	      0.00000000	      0.00000000	      0.00000000	      0.00000000	      0.00000000	      0.00000000	      0.00000000	      0.00000000	      0.00000000	    106.43243610	    356.95678659	    -18.35816001	      2.04980189	      0.00000000	      1.02539237	      0.00000000	      2.86324381	      0.00000000
      7.50500000	      0.00000000	      0.00000000	      0.00000000	      0.00000000	      0.00000000	      0.00000000	      0.00000000	      0.00000000	      0.00000000	    104.30932491	    345.50052737	    -18.00276870	      2.04812248	      0.00000000	      1.02512326	      0.00000000	      2.74677154	      0.00000000
      7.50600000	      0.00000000	      0.00000000	      0.00000000	      0.00000000	      0.00000000	      0.00000000	      0.00000000	      0.00000000	      0.00000000	    102.18621371	    334.04426816	    -17.64737740	      2.04644306	      0.00000000	      1.02485415	      0.00000000	      2.63029928	      0.00000000
      7.50700000	      0.00000000	      0.00000000	      0.00000000	      0.00000000	      0.00000000	      0.00000000	      0.00000000	      0.00000000	      0.00000000	    100.05073384	    322.78907988	    -17.27612268	      2.04480056	      0.00000000	      1.02457628	      0.00000000	      2.51276942	      0.00000000
      7.50800000	      0.00000000	      0.00000000	      0.00000000	      0.00000000	      0.00000000	      0.00000000	      0.00000000	      0.00000000	      0.00000000	     97.89051664	    311.93603349	    -16.87314113	      2.04323189	      0.00000000	      1.02428089	      0.00000000	      2.39312438	      0.00000000
      7.50900000	      0.00000000	      0.00000000	      0.00000000	      0.00000000	      0.00000000	      0.00000000	      0.00000000	      0.00000000	      0.00000000	     95.73029943	    301.08298709	    -16.47015958	      2.04166322	      0.00000000	      1.02398550	      0.00000000	      2.27347934	      0.00000000
      7.51000000	      0.00000000	      0.00000000	      0.00000000	      0.00000000	      0.00000000	      0.00000000	      0.00000000	      0.00000000	      0.00000000	     93.57008223	    290.22994069	    -16.06717803	      2.04009455	      0.00000000	      1.02369011	      0.00000000	      2.15383429	      0.00000000
